<svg xmlns="http://www.w3.org/2000/svg" xmlns:xlink="http://www.w3.org/1999/xlink" width="88.985" height="13.964" viewBox="0 0 88.985 13.964">
  <defs>
    <clipPath id="clip-path">
      <rect width="88.985" height="13.964" fill="none"/>
    </clipPath>
  </defs>
  <g id="icon-showcase-rating" clip-path="url(#clip-path)">
    <g transform="translate(-465 -1598)">
      <path id="star_1_" data-name="star (1)" d="M13.614,5.01l-4.3-.657L7.388.248a.455.455,0,0,0-.791,0L4.67,4.353l-4.3.657a.437.437,0,0,0-.246.737l3.123,3.2L2.51,13.474a.437.437,0,0,0,.643.453L6.992,11.8l3.84,2.123a.437.437,0,0,0,.643-.453l-.738-4.526,3.123-3.2a.437.437,0,0,0-.246-.738Z" transform="translate(465 1597.981)" fill="#f1bd12"/>
    </g>
    <g transform="translate(-447 -1598)">
      <path id="star_1_2" data-name="star (1)" d="M13.614,5.01l-4.3-.657L7.388.248a.455.455,0,0,0-.791,0L4.67,4.353l-4.3.657a.437.437,0,0,0-.246.737l3.123,3.2L2.51,13.474a.437.437,0,0,0,.643.453L6.992,11.8l3.84,2.123a.437.437,0,0,0,.643-.453l-.738-4.526,3.123-3.2a.437.437,0,0,0-.246-.738Z" transform="translate(465 1597.981)" fill="#f1bd12"/>
    </g>
    <g transform="translate(-429 -1598)">
      <path id="star_1_3" data-name="star (1)" d="M13.614,5.01l-4.3-.657L7.388.248a.455.455,0,0,0-.791,0L4.67,4.353l-4.3.657a.437.437,0,0,0-.246.737l3.123,3.2L2.51,13.474a.437.437,0,0,0,.643.453L6.992,11.8l3.84,2.123a.437.437,0,0,0,.643-.453l-.738-4.526,3.123-3.2a.437.437,0,0,0-.246-.738Z" transform="translate(465 1597.981)" fill="#f1bd12"/>
    </g>
    <g transform="translate(-411 -1598)">
      <path id="star_1_4" data-name="star (1)" d="M13.614,5.01l-4.3-.657L7.388.248a.455.455,0,0,0-.791,0L4.67,4.353l-4.3.657a.437.437,0,0,0-.246.737l3.123,3.2L2.51,13.474a.437.437,0,0,0,.643.453L6.992,11.8l3.84,2.123a.437.437,0,0,0,.643-.453l-.738-4.526,3.123-3.2a.437.437,0,0,0-.246-.738Z" transform="translate(465 1597.981)" fill="#f1bd12"/>
    </g>
    <g transform="translate(-393 -1598)">
      <path id="star_1_5" data-name="star (1)" d="M13.614,5.01l-4.3-.657L7.388.248a.455.455,0,0,0-.791,0L4.67,4.353l-4.3.657a.437.437,0,0,0-.246.737l3.123,3.2L2.51,13.474a.437.437,0,0,0,.643.453L6.992,11.8l3.84,2.123a.437.437,0,0,0,.643-.453l-.738-4.526,3.123-3.2a.437.437,0,0,0-.246-.738Z" transform="translate(465 1597.981)" fill="#f1bd12"/>
    </g>
  </g>
</svg>
